<svg aria-hidden="true" style="position: absolute; width: 0; height: 0; overflow: hidden;" version="1.1"
    xmlns="http://www.w3.org/2000/svg" xmlns:xlink="http://www.w3.org/1999/xlink">
    <defs>
        <symbol id="arrow-right" viewBox="0 0 32 32">
            <path
                d="M10.586 3.272c-0.375 0.375-0.586 0.884-0.586 1.414s0.211 1.039 0.586 1.414l9.9 9.9-9.9 9.9c-0.364 0.377-0.566 0.882-0.561 1.407s0.215 1.026 0.586 1.397c0.371 0.371 0.872 0.581 1.397 0.586s1.030-0.197 1.407-0.561l11.314-11.314c0.375-0.375 0.586-0.884 0.586-1.414s-0.211-1.039-0.586-1.414l-11.314-11.314c-0.375-0.375-0.884-0.586-1.414-0.586s-1.039 0.211-1.414 0.586z">
            </path>
        </symbol>
        <symbol id="logo-icon" viewBox="0 0 32 32">
            <path
                d="M16.079 14.49c1.612-4.314-1.726-6.674-3.94-8.226-0.423-0.317-0.846-0.612-1.189-0.884-0.612-0.51-1.064-1.182-1.3-1.937s-0.249-1.562-0.033-2.323c0.023-0.079 0.021-0.164-0.002-0.243s-0.068-0.151-0.129-0.207c-0.062-0.056-0.137-0.094-0.22-0.11s-0.166-0.010-0.246 0.018c-0.745 0.29-1.438 0.699-2.053 1.205-0.591 0.448-1.068 1.024-1.398 1.684-0.329 0.659-0.5 1.383-0.502 2.117-0.417 0.324-0.786 0.705-1.097 1.131-0.568 0.765-0.854 1.701-0.809 2.648-0.678 0.614-1.184 1.39-1.465 2.254s-0.334 1.784-0.147 2.673c-0.27 0.16-0.479 0.404-0.595 0.693s-0.132 0.607-0.046 0.906c0.087 0.299 0.268 0.562 0.52 0.748s0.558 0.287 0.873 0.284h0.031v2.453c0 0.249 0.1 0.488 0.28 0.663s0.421 0.274 0.672 0.274h0.74l1.205 10.303c0.025 0.23 0.135 0.442 0.309 0.595s0.4 0.239 0.634 0.239h5.019c0.234-0.002 0.461-0.087 0.634-0.239s0.286-0.365 0.313-0.595l1.205-10.303h0.74c0.253 0 0.495-0.099 0.672-0.274s0.28-0.415 0.28-0.663v-2.453h0.031c0.383 0 0.749-0.149 1.021-0.415s0.423-0.629 0.423-1.006c0.002-0.188-0.035-0.375-0.108-0.549-0.072-0.174-0.181-0.332-0.316-0.464l-0.013 0.004zM5.216 6.664c0.61 2.257 2.962 3.146 5.108 3.938 0.058 0.035 0.122 0.056 0.191 0.064s0.135 0 0.201-0.021c0.064-0.021 0.122-0.056 0.172-0.102s0.087-0.102 0.11-0.166c0.023-0.062 0.035-0.129 0.031-0.195s-0.023-0.131-0.058-0.189c-0.033-0.058-0.079-0.108-0.135-0.147s-0.118-0.066-0.185-0.077c-2.311-0.863-4.49-1.668-4.656-3.976-0.039-0.634 0.081-1.268 0.351-1.845s0.679-1.079 1.193-1.462c0.321-0.263 0.668-0.498 1.031-0.701-0.023 0.289-0.023 0.578 0 0.867 0.050 0.661 0.233 1.305 0.539 1.896s0.73 1.112 1.247 1.537c0.351 0.297 0.786 0.601 1.269 0.927 1.114 0.788 2.379 1.668 3.182 2.862 0.429 0.612 0.697 1.319 0.776 2.059s-0.027 1.487-0.315 2.175h-1.87c-3.855 0-8.286-1.051-9.161-3.996-0.174-0.605-0.172-1.247 0.004-1.854s0.52-1.149 0.995-1.572l-0.021-0.021zM8.687 20.884l1.414 1.393-1.413 1.393-1.413-1.402 1.413-1.385zM11.927 24.542l-1.168 1.151-1.413-1.393 1.413-1.389 1.228 1.205-0.060 0.425zM8.687 27.737l-1.413-1.393 1.413-1.393 1.414 1.393-1.413 1.393zM8.040 24.309l-1.413 1.393-1.176-1.16-0.052-0.417 1.228-1.205 1.413 1.389zM5.974 26.345l-0.284 0.28-0.072-0.634 0.355 0.355zM5.826 27.771l0.8-0.788 1.553 1.543c0.008 0.031 0.018 0.062 0.031 0.091h-2.285l-0.098-0.848zM10.751 26.982l0.8 0.788-0.098 0.834h-2.348l1.647-1.622zM11.682 26.624l-0.284-0.28 0.359-0.355-0.077 0.634zM12.107 22.977l-0.707-0.709 0.898-0.884-0.191 1.593zM10.747 21.635l-1.342-1.317h2.683l-1.342 1.317zM6.621 21.635l-1.342-1.317h2.683l-1.342 1.317zM11.191 30.545h-5.014c-0.008-0.002-0.014-0.004-0.021-0.010s-0.008-0.013-0.010-0.019l-0.119-1.002h5.315l-0.114 1.002c-0.002 0.008-0.004 0.015-0.011 0.021s-0.014 0.008-0.023 0.008h-0.004zM15.073 16.012h-1.473c-0.064-0.006-0.128 0.002-0.189 0.021s-0.118 0.052-0.166 0.095c-0.047 0.043-0.087 0.095-0.112 0.153s-0.040 0.12-0.040 0.185 0.014 0.126 0.040 0.185c0.025 0.058 0.064 0.11 0.112 0.153s0.103 0.075 0.166 0.095c0.062 0.021 0.126 0.027 0.189 0.021h0.525v2.453c-0.002 0.008-0.004 0.015-0.011 0.021s-0.014 0.008-0.023 0.008h-10.82c-0.008 0-0.016-0.004-0.023-0.008s-0.011-0.013-0.011-0.021v-2.453h8.383c0.114-0.011 0.22-0.062 0.297-0.147s0.12-0.193 0.12-0.307-0.043-0.222-0.12-0.307c-0.077-0.083-0.183-0.137-0.297-0.147h-9.31c-0.072 0.006-0.147-0.002-0.215-0.025s-0.132-0.060-0.186-0.108c-0.054-0.048-0.097-0.108-0.127-0.174s-0.044-0.137-0.044-0.209c0-0.072 0.015-0.143 0.044-0.209s0.072-0.125 0.127-0.174c0.054-0.048 0.118-0.085 0.186-0.108 0.069-0.023 0.141-0.033 0.215-0.025h0.961c0.114-0.011 0.22-0.062 0.297-0.147s0.12-0.193 0.12-0.307-0.043-0.222-0.12-0.307c-0.077-0.083-0.183-0.137-0.297-0.147h-0.846c-0.121-0.634-0.101-1.288 0.058-1.914s0.454-1.211 0.865-1.715c0.297 0.909 1.058 2.153 2.962 3.14 1.79 0.923 4.16 1.393 7.041 1.393h1.693c0.072-0.006 0.146 0.002 0.215 0.025s0.132 0.060 0.186 0.108c0.054 0.048 0.097 0.108 0.127 0.174s0.044 0.137 0.044 0.209c0 0.072-0.015 0.143-0.044 0.209s-0.072 0.125-0.127 0.174c-0.054 0.048-0.118 0.085-0.186 0.108s-0.141 0.033-0.215 0.025h0.031z">
            </path>
            <path
                d="M18.060 28.245l-0.334 0.512 0.006 0.004 0.327-0.516zM21.648 28.418l0.61-0.014-0.016-0.707-0.697 0.118 0.102 0.602zM21.691 30.296l0.156 0.591 0.466-0.122-0.011-0.481-0.61 0.014zM16.981 30.386l0.137-0.595-0.004-0.002-0.133 0.595zM14.656 29.348l0.394-0.465-0.002-0.002-0.394 0.467zM13.816 27.44l0.61 0.004v-0.004h-0.61zM14.107 26.105l-0.547-0.27-0 0.002 0.548 0.268zM15.979 24.507l0.216 0.571 0.002-0.002-0.22-0.57zM21.977 24.352l0.608 0.047 0.040-0.516-0.502-0.125-0.147 0.593zM21.827 26.266l-0.114 0.6 0.67 0.127 0.052-0.68-0.608-0.047zM20.2 25.483c-0.917 0-1.686 0.098-2.248 0.345-0.289 0.127-0.55 0.305-0.742 0.556-0.197 0.26-0.29 0.564-0.29 0.883h1.221c0-0.071 0.017-0.11 0.043-0.145 0.033-0.042 0.103-0.108 0.26-0.176 0.328-0.145 0.894-0.242 1.757-0.242v-1.221zM16.919 27.268c0 0.629 0.282 1.145 0.807 1.489l0.666-1.022c-0.181-0.118-0.253-0.251-0.253-0.467h-1.221zM17.732 28.761c0.498 0.316 1.157 0.434 1.894 0.434v-1.221c-0.637 0-1.024-0.108-1.24-0.245l-0.653 1.031zM19.627 29.196c0.724 0 1.431-0.058 2.124-0.176l-0.204-1.203c-0.622 0.106-1.259 0.158-1.918 0.158v1.221zM21.038 28.432l0.042 1.877 1.221-0.027-0.042-1.877-1.221 0.027zM21.535 29.706c-0.699 0.184-1.468 0.278-2.313 0.278v1.221c0.936 0 1.811-0.104 2.624-0.318l-0.311-1.182zM19.223 29.984c-0.862 0-1.56-0.068-2.105-0.193l-0.274 1.19c0.663 0.153 1.46 0.224 2.379 0.224v-1.221zM17.114 29.79c-0.583-0.13-1.003-0.269-1.284-0.406l-0.537 1.097c0.403 0.197 0.927 0.359 1.554 0.5l0.267-1.191zM15.83 29.384c-0.301-0.147-0.558-0.315-0.78-0.5l-0.79 0.931c0.305 0.259 0.651 0.481 1.033 0.668l0.537-1.097zM15.050 28.882c-0.415-0.35-0.627-0.809-0.624-1.438l-1.221-0.006c-0.004 0.96 0.343 1.773 1.058 2.377l0.788-0.933zM14.426 27.44c0-0.411 0.081-0.763 0.23-1.068l-1.097-0.537c-0.241 0.49-0.355 1.029-0.355 1.603h1.221zM14.656 26.374c0.278-0.566 0.767-1.003 1.541-1.296l-0.433-1.141c-1.008 0.382-1.765 1.010-2.203 1.899l1.097 0.539zM16.199 25.078c0.813-0.311 1.719-0.471 2.725-0.471v-1.221c-1.138 0-2.196 0.181-3.163 0.554l0.438 1.14zM18.924 24.605c1.027 0 1.995 0.114 2.905 0.34l0.294-1.184c-1.014-0.251-2.082-0.375-3.198-0.375v1.221zM21.368 24.306l-0.149 1.914 1.218 0.095 0.149-1.914-1.218-0.095zM21.94 25.666c-0.635-0.12-1.217-0.183-1.742-0.183v1.221c0.43 0 0.933 0.052 1.514 0.162l0.228-1.199zM27.897 26.642l-0.004 0.61 0.62 0.004-0.006-0.62-0.61 0.006zM27.635 25.849l-0.415 0.448 0.004 0.004 0.411-0.452zM26.115 25.908l0.423 0.44 0.004-0.004-0.427-0.436zM25.744 26.63l-0.602-0.1-0.116 0.707 0.715 0.004 0.004-0.61zM30.234 29.885l0.369 0.487 0.22-0.166 0.021-0.274-0.608-0.045zM28.917 30.374l-0.131-0.595-0.004 0.002 0.135 0.595zM24.338 30.207l-0.208 0.574 0.004 0.002 0.203-0.576zM23.295 29.652l-0.379 0.479 0.004 0.004 0.004 0.004 0.372-0.485zM22.597 28.776l-0.547 0.27 0.002 0.002 0.546-0.273zM23.313 25.074l0.406 0.456-0.406-0.456zM28.893 24.412l0.244-0.558-0.006-0.002-0.239 0.562zM30.294 25.7l-0.549 0.267 0.002 0.004 0.547-0.27zM30.532 26.767l0.609 0.044 0.002-0.023v-0.023h-0.61zM30.461 27.751l-0.004 0.61 0.571 0.004 0.042-0.568-0.609-0.044zM25.626 27.727l0.004-0.61-0.796-0.004 0.203 0.77 0.591-0.156zM26.318 28.579l-0.3 0.531 0.004 0.002 0.299-0.533zM30.025 28.37v-0.61h-0.122l-0.112 0.047 0.234 0.564zM30.347 28.37l0.609 0.045 0.050-0.656h-0.658v0.61zM28.508 26.635c-0.004-0.442-0.106-0.915-0.462-1.24l-0.82 0.905c-0.006-0.006 0.006 0.002 0.023 0.054 0.018 0.056 0.035 0.149 0.037 0.293l1.221-0.013zM28.051 25.401c-0.32-0.297-0.74-0.396-1.155-0.396v1.221c0.238 0 0.309 0.056 0.324 0.069l0.831-0.896zM26.895 25.006c-0.454 0-0.878 0.141-1.209 0.467l0.854 0.871c0.067-0.065 0.164-0.118 0.354-0.118v-1.221zM25.692 25.468c-0.3 0.289-0.481 0.651-0.549 1.062l1.205 0.197c0.027-0.168 0.093-0.287 0.191-0.38l-0.846-0.881zM25.742 27.24l2.153 0.012 0.006-1.221-2.153-0.012-0.006 1.221zM29.865 29.399c-0.135 0.101-0.461 0.242-1.080 0.379l0.263 1.193c0.643-0.141 1.196-0.326 1.555-0.599l-0.738-0.973zM28.782 29.778c-0.591 0.135-1.16 0.201-1.707 0.201v1.221c0.645 0 1.305-0.077 1.977-0.23l-0.27-1.191zM27.075 29.978c-0.575 0-1.049-0.027-1.427-0.079l-0.164 1.211c0.45 0.062 0.981 0.089 1.589 0.089v-1.221zM25.648 29.9c-0.371-0.050-0.739-0.139-1.106-0.269l-0.406 1.151c0.442 0.157 0.894 0.266 1.35 0.328l0.164-1.211zM24.547 29.633c-0.357-0.129-0.647-0.287-0.879-0.464l-0.743 0.968c0.348 0.267 0.753 0.479 1.207 0.643l0.415-1.147zM23.674 29.174c-0.21-0.166-0.387-0.385-0.529-0.67l-1.091 0.546c0.215 0.43 0.502 0.794 0.863 1.082l0.757-0.956zM23.145 28.506c-0.128-0.26-0.205-0.595-0.205-1.022h-1.221c0 0.573 0.102 1.101 0.331 1.564l1.095-0.541zM22.94 27.482c0-0.43 0.077-0.809 0.224-1.145l-1.12-0.486c-0.22 0.506-0.325 1.051-0.325 1.632h1.221zM23.163 26.336c0.154-0.355 0.343-0.616 0.556-0.806l-0.813-0.912c-0.367 0.328-0.651 0.745-0.863 1.232l1.12 0.486zM23.719 25.53c0.656-0.585 1.657-0.925 3.099-0.925v-1.221c-1.618 0-2.953 0.38-3.911 1.234l0.813 0.911zM26.818 24.605c0.647 0 1.257 0.123 1.836 0.369l0.477-1.124c-0.734-0.311-1.506-0.466-2.313-0.466v1.221zM28.649 24.972c0.539 0.236 0.889 0.57 1.097 0.995l1.097-0.535c-0.35-0.719-0.935-1.244-1.705-1.581l-0.488 1.118zM29.747 25.97c0.114 0.231 0.175 0.493 0.175 0.796h1.221c0-0.475-0.098-0.925-0.301-1.337l-1.095 0.541zM29.924 26.723l-0.072 0.983 1.218 0.089 0.072-0.983-1.218-0.089zM30.464 27.14l-4.834-0.023-0.006 1.221 4.834 0.023 0.006-1.221zM25.036 27.882c0.143 0.541 0.491 0.952 0.981 1.228l0.601-1.062c-0.241-0.137-0.354-0.295-0.402-0.477l-1.182 0.311zM26.019 29.112c0.496 0.278 1.114 0.387 1.806 0.387v-1.221c-0.58 0-0.966-0.096-1.211-0.233l-0.595 1.066zM27.826 29.5c0.743 0 1.557-0.201 2.435-0.566l-0.469-1.126c-0.784 0.327-1.436 0.471-1.964 0.471v1.221zM30.025 28.981h0.321v-1.221h-0.321v1.221zM29.739 28.325l-0.112 1.514 1.218 0.091 0.112-1.514-1.218-0.091z">
            </path>
        </symbol>
        <symbol id="cow" viewBox="0 0 31 32">
            <path
                d="M6.002 0.778c-0.254 0.219-0.979 1.733-1.24 2.559-0.31 1.024-0.416 1.791-0.373 2.852 0.056 1.514 0.437 2.661 1.275 3.861 0.218 0.314 0.394 0.585 0.394 0.607 0 0.015-0.134 0.029-0.303 0.029-0.726 0-2.085 0.241-3.128 0.556-1.655 0.497-2.627 1.367-2.627 2.34 0 0.344 0.31 0.929 0.641 1.228 0.641 0.578 2.043 1.126 3.55 1.389 0.521 0.095 2.071 0.256 2.416 0.263 0.063 0 0.085 0.336 0.085 1.44 0 0.951 0.035 1.689 0.106 2.142 0.254 1.623 1.043 3.341 2.085 4.555l0.359 0.417-0.24 0.387c-0.352 0.548-0.486 0.965-0.528 1.587-0.106 1.492 0.824 2.815 2.62 3.744 3.423 1.777 8.742 1.082 10.735-1.404 0.972-1.214 1.085-2.603 0.317-3.861l-0.239-0.388 0.43-0.519c0.803-0.965 1.324-1.93 1.719-3.151 0.331-1.038 0.458-2.040 0.458-3.627 0-0.724 0.021-1.323 0.056-1.323 0.324-0.007 1.881-0.175 2.374-0.263 1.515-0.263 2.888-0.804 3.55-1.389 0.331-0.3 0.641-0.885 0.641-1.228 0-1.082-1.099-1.96-3.142-2.486-0.669-0.175-1.93-0.387-2.543-0.424l-0.289-0.022 0.317-0.439c0.394-0.534 0.888-1.572 1.078-2.252 0.535-1.967 0.204-4.255-0.944-6.442-0.479-0.907-0.81-1.119-1.198-0.76-0.148 0.139-0.211 0.329-0.352 1.016-0.437 2.186-1.247 3.919-2.43 5.199l-0.521 0.57h-11.144l-0.465-0.505c-1.155-1.272-1.993-3.071-2.43-5.264-0.141-0.687-0.204-0.877-0.352-1.016-0.232-0.212-0.458-0.205-0.718 0.022zM6.903 5.114c0.373 0.819 0.838 1.587 1.388 2.296l0.437 0.563-0.458 0.344c-0.43 0.329-0.831 0.797-1.141 1.331l-0.134 0.241-0.338-0.461c-1.155-1.594-1.444-3.546-0.831-5.571 0.296-0.98 0.289-0.972 0.556-0.124 0.127 0.409 0.366 1.031 0.521 1.382zM25.239 3.571c0.289 0.87 0.402 1.565 0.402 2.464 0 1.331-0.352 2.457-1.092 3.466l-0.331 0.453-0.247-0.417c-0.289-0.512-0.782-1.046-1.233-1.353-0.19-0.124-0.338-0.249-0.338-0.263 0-0.022 0.134-0.19 0.303-0.373 0.782-0.87 1.62-2.435 2.036-3.78 0.127-0.417 0.254-0.76 0.275-0.76s0.127 0.256 0.225 0.563zM21.64 8.916c0.782 0.329 1.529 1.272 1.648 2.069 0.063 0.439 0.211 0.717 0.402 0.76 0.084 0.015 0.669 0.066 1.296 0.11 2.226 0.146 3.98 0.621 4.727 1.272 0.345 0.307 0.31 0.563-0.106 0.877-0.831 0.629-2.627 1.104-4.459 1.184-1.212 0.051-1.465 0.088-1.627 0.256-0.12 0.124-0.134 0.256-0.134 1.579 0 1.791-0.092 2.822-0.317 3.656-0.317 1.133-0.944 2.34-1.677 3.195l-0.303 0.351-0.627-0.373c-0.761-0.453-1.472-0.746-2.325-0.943-2.67-0.636-5.621-0.249-7.608 1.002l-0.458 0.293-0.289-0.344c-0.394-0.461-1.014-1.448-1.261-2.003-0.542-1.258-0.704-2.281-0.704-4.533 0-2.186 0.113-2.025-1.507-2.113-2.071-0.11-3.649-0.483-4.642-1.111-0.733-0.468-0.613-0.885 0.409-1.375 0.979-0.475 2.325-0.76 4.191-0.877 1.451-0.095 1.486-0.117 1.62-0.819 0.197-1.060 0.979-1.938 1.965-2.215 0.246-0.073 1.627-0.088 5.854-0.080l5.53 0.015 0.401 0.168zM17.681 24.051c1.726 0.424 3.015 1.214 3.571 2.193 0.134 0.227 0.19 0.461 0.218 0.819 0.028 0.446 0.007 0.556-0.162 0.921-0.782 1.66-3.656 2.756-6.579 2.508-3.515-0.293-5.826-2.252-4.917-4.175 0.493-1.038 2.163-2.033 3.924-2.325 0.289-0.044 0.578-0.095 0.634-0.11s0.69-0.015 1.409 0c0.979 0.022 1.451 0.066 1.902 0.168z">
            </path>
            <path
                d="M10.693 12.579c-0.437 0.146-0.733 0.336-1.127 0.731-0.345 0.329-0.373 0.717-0.085 0.95 0.268 0.219 0.521 0.19 0.845-0.095 0.409-0.358 0.726-0.505 1.12-0.505 0.394-0.007 0.697 0.132 1.12 0.505 0.324 0.285 0.578 0.314 0.845 0.095 0.141-0.117 0.183-0.212 0.183-0.431 0-0.227-0.049-0.329-0.296-0.578-0.697-0.702-1.733-0.972-2.606-0.673z">
            </path>
            <path
                d="M18.906 12.571c-0.451 0.168-1.029 0.548-1.261 0.833-0.225 0.278-0.232 0.592 0 0.826 0.232 0.249 0.514 0.234 0.852-0.044 0.831-0.687 1.451-0.709 2.219-0.073 0.197 0.168 0.423 0.3 0.493 0.3 0.345 0 0.627-0.307 0.627-0.673 0-0.234-0.585-0.775-1.113-1.031-0.585-0.285-1.282-0.336-1.817-0.139z">
            </path>
            <path
                d="M11.714 26.106c-0.204 0.197-0.275 0.483-0.169 0.709 0.078 0.183 0.197 0.256 0.683 0.388 0.218 0.058 0.31 0.132 0.387 0.314 0.099 0.241 0.106 0.241 0.648 0.263l0.542 0.022v-0.205c-0.007-0.293-0.169-0.717-0.38-1.009-0.247-0.336-0.676-0.556-1.162-0.6-0.331-0.029-0.416-0.015-0.549 0.117z">
            </path>
            <path
                d="M18.442 26.054c-0.352 0.095-0.859 0.57-1 0.943-0.063 0.168-0.127 0.468-0.134 0.665-0.014 0.314 0.014 0.388 0.183 0.541 0.416 0.366 0.965 0.080 0.965-0.504 0-0.285 0.211-0.483 0.585-0.556 0.394-0.073 0.535-0.234 0.542-0.607 0-0.49-0.437-0.68-1.141-0.483z">
            </path>
        </symbol>
  

        <symbol id="ice-cream" viewBox="0 0 32 32">
            <path
                d="M16.108 0.107c0.080 0.214 0.241 1.252 0.241 1.573 0 0.797-0.295 1.54-0.837 2.122-0.449 0.482-0.897 0.75-1.975 1.185-1.198 0.489-1.694 0.783-2.256 1.339-0.569 0.569-0.904 1.192-1.024 1.921-0.134 0.797 0 1.359 0.408 1.68l0.208 0.161-0.328 0.208c-0.663 0.435-1.868 1.459-2.075 1.774-0.402 0.603-0.361 1.165 0.094 1.392l0.214 0.107-0.241 0.228c-0.361 0.341-0.435 0.576-0.382 1.192 0.033 0.408 0.020 0.629-0.074 0.964-0.114 0.435-0.114 0.442 0.033 0.75 0.147 0.301 0.562 0.683 0.937 0.843 0.181 0.080 0.187 0.107 0.228 0.723 0.020 0.355 0.053 1.486 0.080 2.517 0.020 1.031 0.067 1.975 0.107 2.089 0.033 0.121 0.161 0.281 0.274 0.361 0.388 0.268 0.656 0.556 0.83 0.89 0.194 0.382 0.408 1.319 1.058 4.559l0.455 2.276 0.281 0.268c0.536 0.529 1.56 0.77 3.247 0.77 1.694 0 2.705-0.234 3.24-0.763l0.288-0.274 0.415-2.109c0.917-4.613 0.997-4.867 1.714-5.436 0.221-0.181 0.435-0.402 0.475-0.502 0.047-0.114 0.094-0.991 0.127-2.316 0.027-1.178 0.067-2.343 0.094-2.591l0.040-0.449 0.435-0.328c0.549-0.422 0.763-0.803 0.763-1.393-0.007-0.696-0.462-1.459-1.292-2.142l-0.395-0.321 0.194-0.274c0.81-1.118 0.301-2.664-1.205-3.695l-0.455-0.315 0.167-0.174c0.743-0.797 0.864-3.173 0.241-4.827-0.375-0.984-1.232-2.055-2.283-2.845-0.515-0.388-1.935-1.245-2.062-1.245-0.027 0-0.027 0.047-0.007 0.107zM18.036 2.443c0.355 0.348 0.783 0.823 0.951 1.064 0.997 1.392 1.252 3.14 0.649 4.425-0.241 0.522-0.964 1.299-1.633 1.761-1.024 0.71-3.327 1.901-4.934 2.557-2.584 1.051-4.084 1.252-4.258 0.562-0.067-0.261 0.127-0.469 0.951-1.018 0.743-0.509 4.077-2.986 4.137-3.086 0.020-0.027-0.321 0.127-0.75 0.341-1.453 0.736-2.142 0.596-2.109-0.428 0.020-0.743 0.556-1.587 1.299-2.069 0.187-0.12 0.77-0.388 1.305-0.603 1.761-0.71 2.296-1.071 2.892-1.962 0.355-0.529 0.743-1.506 0.77-1.921 0.007-0.147 0.034-0.261 0.054-0.261s0.321 0.288 0.676 0.636zM19.864 10.049c0.489 0.274 0.997 0.743 1.218 1.111 0.388 0.663 0.187 1.325-0.649 2.169-0.91 0.924-2.464 1.808-4.171 2.37-1.573 0.515-3.079 0.756-5.235 0.83l-1.339 0.047 0.87 0.054c1.125 0.074 3.3 0.007 4.144-0.127 2.243-0.355 4.151-1.064 5.516-2.042 0.308-0.221 0.629-0.402 0.716-0.402 0.221 0 1.185 0.924 1.379 1.312 0.107 0.221 0.134 0.382 0.114 0.596-0.1 0.89-1.185 1.366-3.802 1.68-3.2 0.382-7.384 0.007-9.172-0.817-0.844-0.388-0.984-0.609-0.77-1.198 0.067-0.187 0.080-0.408 0.054-0.723-0.033-0.415-0.027-0.469 0.12-0.623 0.335-0.361 0.897-0.569 2.959-1.091 0.723-0.187 1.707-0.482 2.176-0.656 1.138-0.415 3.274-1.493 4.264-2.156 0.93-0.616 1.064-0.643 1.607-0.335zM10.974 18.243c1.406 0.408 2.651 0.529 4.967 0.482 1.741-0.034 2.812-0.141 4.358-0.415 0.315-0.053 0.589-0.1 0.623-0.1 0.074 0 0.053 2.571-0.027 3.247-0.087 0.716-0.281 1.272-0.489 1.406-0.214 0.141-1.285 0.288-2.718 0.368-2.939 0.161-5.958 0-6.895-0.375-0.509-0.207-0.562-0.475-0.569-2.959 0-1.654 0.013-1.881 0.1-1.848 0.053 0.020 0.348 0.107 0.649 0.194zM12.56 23.933c0.482 0.060 1.004 0.121 1.165 0.141l0.288 0.034-0.254 0.281c-0.328 0.355-0.83 1.064-1.011 1.426-0.207 0.415-0.274 0.442-0.582 0.274l-0.261-0.147-0.147-0.91c-0.080-0.495-0.167-0.971-0.187-1.051-0.060-0.174-0.12-0.174 0.991-0.047zM19.697 23.859c0 0.013-0.033 0.187-0.067 0.382-0.040 0.201-0.208 1.292-0.375 2.43-0.341 2.377-0.569 3.495-0.777 3.869-0.288 0.502-0.977 0.797-2.095 0.89-0.435 0.034-1.747-0.053-1.821-0.12-0.053-0.060 1.098-1.486 1.279-1.58 0.167-0.094 0.214-0.080 0.783 0.214 0.663 0.348 0.997 0.402 0.997 0.181s-0.174-0.435-0.602-0.73c-0.395-0.281-0.536-0.442-0.536-0.629 0-0.053 0.194-0.355 0.428-0.669s0.576-0.817 0.75-1.118l0.328-0.542 0.301 0.040c0.609 0.087 0.77 0.080 0.75-0.053-0.013-0.067-0.127-0.261-0.254-0.422-0.127-0.167-0.228-0.335-0.228-0.368 0-0.127 0.623-1.299 0.823-1.546 0.174-0.214 0.315-0.321 0.315-0.228zM15.513 24.395c0.335 0.221 1.593 1.312 1.674 1.446 0.034 0.060-1.259 2.082-1.513 2.37-0.027 0.034-0.167-0.033-0.308-0.141-0.141-0.114-0.663-0.475-1.165-0.803l-0.904-0.596 0.542-0.917c0.964-1.613 0.944-1.587 1.151-1.587 0.107 0 0.341 0.1 0.522 0.228zM18.050 24.636c-0.234 0.288-0.428 0.469-0.509 0.469-0.174 0-0.455-0.154-0.93-0.502l-0.395-0.288 0.79-0.047c0.428-0.020 0.844-0.047 0.917-0.060 0.536-0.087 0.536-0.080 0.127 0.428zM12.989 27.856c0.616 0.241 1.66 0.81 1.962 1.064 0.214 0.174 0.214 0.187 0.127 0.402-0.054 0.121-0.234 0.442-0.415 0.716-0.174 0.268-0.375 0.602-0.449 0.743-0.214 0.415-0.281 0.449-0.723 0.328-0.475-0.141-0.73-0.382-0.864-0.817-0.181-0.609-0.469-2.33-0.435-2.598 0.013-0.1 0.295-0.040 0.797 0.161z">
            </path>
        </symbol>

        <symbol id="weight" viewBox="0 0 32 32">
            <path
                d="M14.177 0.547c-3.974 0.589-7.247 2.796-8.451 5.685-0.384 0.913-0.488 1.473-0.488 2.573 0.007 0.812 0.037 1.114 0.162 1.552 0.259 0.863 0.443 1.301 0.827 1.919l0.355 0.575-0.399 0.489c-3.154 3.924-3.502 9.444-0.872 13.793 0.982 1.632 2.585 3.234 4.152 4.169l0.465 0.273 12.743-0.108 0.303-0.165c1.056-0.597 2.549-1.926 3.383-3.004 1.256-1.639 2.076-3.551 2.423-5.621 0.118-0.74 0.118-2.932-0.007-3.63-0.377-2.149-1.182-3.989-2.453-5.621-0.244-0.309-0.436-0.568-0.436-0.589 0-0.014 0.133-0.237 0.288-0.489 0.362-0.575 0.687-1.315 0.864-1.962 0.199-0.719 0.199-2.516 0-3.234-0.709-2.552-2.837-4.679-5.843-5.851-0.842-0.331-2.283-0.683-3.213-0.798-0.864-0.101-2.999-0.079-3.804 0.043zM18.676 1.718c3.945 0.769 6.833 3.184 7.365 6.16 0.118 0.668 0.044 1.804-0.155 2.437-0.199 0.618-0.569 1.344-1.005 1.962-0.177 0.252-0.325 0.539-0.325 0.633s0.155 0.338 0.377 0.582c1.847 2.048 2.822 4.614 2.822 7.389-0.007 3.155-1.219 5.922-3.553 8.093-0.399 0.374-0.968 0.841-1.271 1.042l-0.554 0.374-12.211 0.050-0.473-0.302c-1.714-1.114-3.258-2.954-4.115-4.909-1.079-2.472-1.189-5.34-0.31-7.913 0.465-1.337 1.086-2.429 2.031-3.579 0.384-0.46 0.561-0.733 0.561-0.863 0-0.108-0.192-0.46-0.443-0.827-0.886-1.287-1.248-2.717-1.034-4.068 0.222-1.366 0.842-2.487 1.987-3.601 1.492-1.445 3.575-2.401 6.020-2.76 1.012-0.151 3.25-0.093 4.285 0.101z">
            </path>
            <path
                d="M14.51 2.983c-3.029 0.496-5.4 2.178-6.176 4.384-0.177 0.496-0.207 0.69-0.207 1.402s0.030 0.906 0.207 1.402c0.111 0.316 0.318 0.755 0.458 0.977 0.384 0.618 0.554 0.64 1.315 0.18 1.138-0.697 2.445-1.208 3.804-1.488 0.916-0.187 2.674-0.259 3.671-0.144 1.559 0.18 3.25 0.74 4.602 1.538 0.384 0.223 0.776 0.41 0.872 0.41 0.561 0 1.278-1.617 1.278-2.875 0-2.796-2.674-5.189-6.464-5.786-0.805-0.129-2.585-0.129-3.361 0zM18.166 4.133c1.271 0.273 2.438 0.791 3.317 1.473 1.182 0.913 1.817 2.185 1.714 3.414-0.037 0.489-0.222 1.15-0.332 1.222-0.029 0.014-0.443-0.158-0.916-0.388-0.983-0.474-2.098-0.855-3.228-1.1-0.687-0.144-0.975-0.165-2.512-0.158-1.514 0-1.832 0.022-2.489 0.158-1.138 0.244-2.024 0.546-3.117 1.064-1.101 0.525-1.042 0.532-1.241-0.115-0.258-0.841-0.096-1.955 0.406-2.796 0.266-0.446 0.997-1.186 1.529-1.553 1.012-0.697 1.899-1.013 3.804-1.358 0.391-0.072 2.563 0.029 3.066 0.137z">
            </path>
            <path
                d="M16.962 13.405c-0.207 0.259-0.207 0.503 0.007 0.712 0.14 0.137 0.281 0.173 0.79 0.208 0.99 0.072 1.935 0.359 2.785 0.848 0.606 0.359 1.529 1.229 1.943 1.854 0.613 0.898 1.034 2.185 1.034 3.134 0 0.331 0.029 0.431 0.185 0.575 0.236 0.237 0.547 0.237 0.776 0 0.163-0.165 0.17-0.208 0.125-0.913-0.207-3.479-3.184-6.382-6.744-6.577l-0.739-0.043-0.163 0.201z">
            </path>
        </symbol>
        <symbol id="arrow" viewBox="-4 7 40 16">
            <path
                d="M31.771 16.552c0.305-0.305 0.305-0.799 0-1.104l-4.967-4.967c-0.305-0.305-0.799-0.305-1.104 0s-0.305 0.799 0 1.104l4.415 4.415-4.415 4.415c-0.305 0.305-0.305 0.799 0 1.104s0.799 0.305 1.104 0l4.967-4.967zM0 16.78h31.22v-1.561h-31.22v1.561z">
            </path>
        </symbol>
        <symbol id="cursor" viewBox="0 0 32 32">
            <path stroke-linejoin="miter" stroke-linecap="butt" stroke-miterlimit="4" stroke-width="1.3333"
                d="M13.365 7.341l7.289 6.803c1.247 1.164 0.558 3.255-1.138 3.449l-2.745 0.314c-0.689 0.079-1.336 0.37-1.851 0.834l-1.582 1.424c-1.287 1.158-3.338 0.245-3.338-1.487v-9.876c0-1.749 2.086-2.655 3.365-1.462z">
            </path>
        </symbol>
        <symbol id="facebook" viewBox="0 0 32 32">
<path d="M23.409 15.969h-4.35v16.031h-6.591v-16.031h-3.135v-5.634h3.135v-3.646c0-2.607 1.231-6.689 6.65-6.689l4.882 0.021v5.469h-3.542c-0.581 0-1.398 0.292-1.398 1.536v3.316h4.926l-0.576 5.629z"></path>
</symbol>
<symbol id="github" viewBox="0 0 32 32">
<path d="M16 0c-8.788 0-16 7.212-16 16 0 7.499 5.262 14.312 12.25 16v-5.293c-0.692 0.151-1.329 0.156-2.034-0.052-0.945-0.279-1.714-0.909-2.284-1.869-0.364-0.613-1.008-1.278-1.68-1.23l-0.165-1.868c1.453-0.124 2.711 0.886 3.457 2.14 0.332 0.558 0.713 0.884 1.203 1.029 0.473 0.14 0.982 0.072 1.574-0.137 0.149-1.186 0.692-1.63 1.102-2.255v-0.001c-4.168-0.622-5.828-2.832-6.488-4.578-0.874-2.317-0.405-5.212 1.14-7.041 0.030-0.036 0.084-0.129 0.063-0.194-0.708-2.139 0.155-3.909 0.187-4.097 0.817 0.242 0.95-0.243 3.551 1.337l0.449 0.27c0.188 0.112 0.129 0.048 0.317 0.034 1.086-0.295 2.23-0.458 3.358-0.472 1.136 0.015 2.273 0.177 3.404 0.484l0.145 0.015c-0.013-0.002 0.040-0.009 0.127-0.061 3.248-1.968 3.132-1.324 4.003-1.608 0.032 0.188 0.883 1.987 0.182 4.099-0.095 0.291 2.816 2.956 1.203 7.235-0.659 1.746-2.32 3.957-6.487 4.578v0.001c0.534 0.814 1.176 1.247 1.173 2.927v6.608c6.988-1.688 12.25-8.501 12.25-16 0-8.788-7.212-16-16-16v0z"></path>
</symbol>
<symbol id="telegram" viewBox="0 0 32 32">
<path d="M12.781 19.959l-0.529 6.949c0.757 0 1.085-0.304 1.479-0.668l3.551-3.167 7.357 5.029c1.349 0.702 2.3 0.332 2.664-1.159l4.829-21.121 0.001-0.001c0.428-1.862-0.721-2.59-2.036-2.133l-28.387 10.143c-1.937 0.702-1.908 1.71-0.329 2.167l7.257 2.107 16.858-9.845c0.793-0.49 1.515-0.219 0.921 0.271l-13.636 11.428z"></path>
</symbol>
    </defs>
</svg>