<svg aria-hidden="true" style="position: absolute; width: 0; height: 0; overflow: hidden;" version="1.1" xmlns="http://www.w3.org/2000/svg" xmlns:xlink="http://www.w3.org/1999/xlink">
<defs>
<symbol id="facebook" viewBox="0 0 32 32">
<path d="M23.409 15.969h-4.35v16.031h-6.591v-16.031h-3.135v-5.634h3.135v-3.646c0-2.607 1.231-6.689 6.65-6.689l4.882 0.021v5.469h-3.542c-0.581 0-1.398 0.292-1.398 1.536v3.316h4.926l-0.576 5.629z"></path>
</symbol>
<symbol id="github" viewBox="0 0 32 32">
<path d="M16 0c-8.788 0-16 7.212-16 16 0 7.499 5.262 14.312 12.25 16v-5.293c-0.692 0.151-1.329 0.156-2.034-0.052-0.945-0.279-1.714-0.909-2.284-1.869-0.364-0.613-1.008-1.278-1.68-1.23l-0.165-1.868c1.453-0.124 2.711 0.886 3.457 2.14 0.332 0.558 0.713 0.884 1.203 1.029 0.473 0.14 0.982 0.072 1.574-0.137 0.149-1.186 0.692-1.63 1.102-2.255v-0.001c-4.168-0.622-5.828-2.832-6.488-4.578-0.874-2.317-0.405-5.212 1.14-7.041 0.030-0.036 0.084-0.129 0.063-0.194-0.708-2.139 0.155-3.909 0.187-4.097 0.817 0.242 0.95-0.243 3.551 1.337l0.449 0.27c0.188 0.112 0.129 0.048 0.317 0.034 1.086-0.295 2.23-0.458 3.358-0.472 1.136 0.015 2.273 0.177 3.404 0.484l0.145 0.015c-0.013-0.002 0.040-0.009 0.127-0.061 3.248-1.968 3.132-1.324 4.003-1.608 0.032 0.188 0.883 1.987 0.182 4.099-0.095 0.291 2.816 2.956 1.203 7.235-0.659 1.746-2.32 3.957-6.487 4.578v0.001c0.534 0.814 1.176 1.247 1.173 2.927v6.608c6.988-1.688 12.25-8.501 12.25-16 0-8.788-7.212-16-16-16v0z"></path>
</symbol>
<symbol id="telegram" viewBox="0 0 32 32">
<path d="M12.781 19.959l-0.529 6.949c0.757 0 1.085-0.304 1.479-0.668l3.551-3.167 7.357 5.029c1.349 0.702 2.3 0.332 2.664-1.159l4.829-21.121 0.001-0.001c0.428-1.862-0.721-2.59-2.036-2.133l-28.387 10.143c-1.937 0.702-1.908 1.71-0.329 2.167l7.257 2.107 16.858-9.845c0.793-0.49 1.515-0.219 0.921 0.271l-13.636 11.428z"></path>
</symbol>
</defs>
</svg>
